{"title":"Riddick 2013 WEBRip 480p x264 AAC - VYTO [P2PDL]","uid":9364232,"size":425418524,"categoryP":"video","categoryS":"movies","magnet":"?xt=urn:btih:e28292d96f84d7bfaffbb144286f56c819978743&amp;dn=Riddick+2013+WEBRip+480p+x264+AAC+-+VYTO+%5BP2PDL%5D&amp;tr=udp%3A%2F%2Ftracker.openbittorrent.com%3A80&amp;tr=udp%3A%2F%2Fopen.demonii.com%3A1337&amp;tr=udp%3A%2F%2Ftracker.coppersurfer.tk%3A6969&amp;tr=udp%3A%2F%2Fexodus.desync.com%3A6969","seeders":0,"leechers":0,"uploader":"Vitamin_X","files":-1,"time":1387382091,"description":"_______ Visit us at our Semi Public Bittorrent Community ________\n  &lt;a href=&quot;\nhttp://p2pdl.com&quot; rel=&quot;nofollow&quot; target=&quot;_NEW&quot;&gt;\nhttp://p2pdl.com&lt;/a&gt;  _____________________________ &lt;a href=&quot; http://p2pdl.com&quot; rel=&quot;nofollow&quot; target=&quot;_NEW&quot;&gt; http://p2pdl.com&lt;/a&gt;\n\n\nRiddick 2013 WEBRip 480p x264 AAC - VYTO\n\nIMDb: &lt;a href=&quot; http://www.imdb.com/title/tt1411250/&quot; rel=&quot;nofollow&quot; target=&quot;_NEW&quot;&gt; http://www.imdb.com/title/tt1411250/&lt;/a&gt;\n\n\nGeneral\nFormat                                   : MPEG-4\nFile size                                : 402 MiB\nDuration                                 : 2h 6mn\nOverall bit rate mode                    : Variable\nOverall bit rate                         : 443 Kbps\n\nVideo\nFormat                                   : AVC\nBit rate                                 : 400 Kbps\nWidth                                    : 720 pixels\nHeight                                   : 304 pixels\nDisplay aspect ratio                     : 2.35:1\nFrame rate mode                          : Constant\nFrame rate                               : 23.976 fps\nBit depth                                : 10 bits\nStream size                              : 362 MiB (90%)\nWriting library                          : x264 core 140 r2377 1ca7bb9\n\nAudio\nFormat                                   : AAC\nBit rate                                 : 40.0 Kbps\nChannel(s)                               : 2 channels\nChannel positions                        : Front: L R\nSampling rate                            : 48.0 KHz / 24.0 KHz\nStream size                              : 36.3 MiB (9%)\n\n\nSubtitle                                 : Yes (English)\n\nSource                                   : UNRATED.DC.720p.WEB-DL.XviD.AC3-ELiTE\n &lt;a href=&quot;\nhttp://ultraimg.com/images/wBNT0.png&quot; rel=&quot;nofollow&quot; target=&quot;_NEW&quot;&gt;\nhttp://ultraimg.com/images/wBNT0.png&lt;/a&gt; &lt;a href=&quot;\nhttp://ultraimg.com/images/dp6h.png&quot; rel=&quot;nofollow&quot; target=&quot;_NEW&quot;&gt;\nhttp://ultraimg.com/images/dp6h.png&lt;/a&gt; &lt;a href=&quot;\nhttp://ultraimg.com/images/aPtli.png&quot; rel=&quot;nofollow&quot; target=&quot;_NEW&quot;&gt;\nhttp://ultraimg.com/images/aPtli.png&lt;/a&gt; &lt;a href=&quot;\nhttp://ultraimg.com/images/eNmKd.png&quot; rel=&quot;nofollow&quot; target=&quot;_NEW&quot;&gt;\nhttp://ultraimg.com/images/eNmKd.png&lt;/a&gt; &lt;a href=&quot;\nhttp://ultraimg.com/images/Y0dc1.png&quot; rel=&quot;nofollow&quot; target=&quot;_NEW&quot;&gt;\nhttp://ultraimg.com/images/Y0dc1.png&lt;/a&gt; &lt;a href=&quot;\nhttp://ultraimg.com/images/W500F.png&quot; rel=&quot;nofollow&quot; target=&quot;_NEW&quot;&gt;\nhttp://ultraimg.com/images/W500F.png&lt;/a&gt;\n\n----------------------------------------------------------------------------------------------------\n\n\nEncoded using revolutionary 10bit encoding, which enables us to provide you more crispier \nand sharper images at small sizes, just make sure you follow our instructions without a fault.\nRecommend to you to use latest version of VLC player. Install K-Lite Codec Pack or shark007 codecs\nin case of any kind of problem in playback (For non-VLC Media Player users). Alternatively, install\nCore AVC codecs, the fastest decoder that there is coupled with Community Center Codec Pack and play\non Windows Media Player Classic. Check sample to be sure.\nEnjoy!\n\nEncoder Notes:Looking For Early Access To Anything You Can Provide DVDScr, R5, DVDR, BluRay, Direct\nAudio, Music Releases and Seedboxes. We require dedicated servers, so as to do more \nand fast releases of movies.\nIf You Got anything to offer please contact us at &quot;&lt;a class=&quot;__cf_email__&quot; href=&quot;/cdn-cgi/l/email-protection&quot; data-cfemail=&quot;a6d6d4c1e6ced3d5ce88c5c9cb&quot;&gt;[email&amp;#160;protected]&lt;/a&gt;&lt;script data-cfhash='f9e31' type=&quot;text/javascript&quot;&gt;\n/* &lt;![CDATA[ */!function(){try{var t=&quot;currentScript&quot;in document?document.currentScript:function(){for(var t=document.getElementsByTagName(&quot;script&quot;),e=t.length;e--;)if(t[e].getAttribute(&quot;data-cfhash&quot;))return t[e]}();if(t&amp;&amp;t.previousSibling){var e,r,n,i,c=t.previousSibling,a=c.getAttribute(&quot;data-cfemail&quot;);if(a){for(e=&quot;&quot;,r=parseInt(a.substr(0,2),16),n=2;a.length-n;n+=2)i=parseInt(a.substr(n,2),16)^r,e+=String.fromCharCode(i);e=document.createTextNode(e),c.parentNode.replaceChild(e,c)}t.parentNode.removeChild(t);}}catch(u){}}()/* ]]&gt; */&lt;/script&gt;&quot;.\n\nFacebook Fan Page:  \nSearch P2PDL on FB and don't forget to hit like!!!\n\nSupport us, please consider a donation via bitcoin.\n\n16aCJG7J5n8eqCHHLPNUZ3ZirwGU34cqXJ\n\nFor more of our team uploads visit @              &lt;a href=&quot;\nhttp://thepiratebay.se/user/ValidusVyto&quot; rel=&quot;nofollow&quot; target=&quot;_NEW&quot;&gt;\nhttp://thepiratebay.se/user/ValidusVyto&lt;/a&gt;\t","torrent":{"xt":"urn:btih:e28292d96f84d7bfaffbb144286f56c819978743","amp;dn":"Riddick+2013+WEBRip+480p+x264+AAC+-+VYTO+%5BP2PDL%5D","amp;tr":["udp%3A%2F%2Ftracker.openbittorrent.com%3A80","udp%3A%2F%2Fopen.demonii.com%3A1337","udp%3A%2F%2Ftracker.coppersurfer.tk%3A6969","udp%3A%2F%2Fexodus.desync.com%3A6969"],"infoHash":"e28292d96f84d7bfaffbb144286f56c819978743","infoHashBuffer":{"type":"Buffer","data":[226,130,146,217,111,132,215,191,175,251,177,68,40,111,86,200,25,151,135,67]},"announce":[],"urlList":[]}}